<svg width="59" height="13" viewBox="0 0 59 13" fill="none" xmlns="http://www.w3.org/2000/svg">
<path d="M0.409091 12V0.363636H4.47727C5.28788 0.363636 5.95644 0.503788 6.48295 0.784091C7.00947 1.06061 7.40152 1.43371 7.65909 1.90341C7.91667 2.36932 8.04545 2.88636 8.04545 3.45455C8.04545 3.95455 7.95644 4.36742 7.77841 4.69318C7.60417 5.01894 7.37311 5.27652 7.08523 5.46591C6.80114 5.6553 6.49242 5.79545 6.15909 5.88636V6C6.51515 6.02273 6.87311 6.14773 7.23295 6.375C7.5928 6.60227 7.89394 6.92803 8.13636 7.35227C8.37879 7.77651 8.5 8.29545 8.5 8.90909C8.5 9.49242 8.36742 10.017 8.10227 10.483C7.83712 10.9489 7.41856 11.3182 6.84659 11.5909C6.27462 11.8636 5.5303 12 4.61364 12H0.409091ZM1.81818 10.75H4.61364C5.53409 10.75 6.1875 10.572 6.57386 10.2159C6.96402 9.85606 7.15909 9.42045 7.15909 8.90909C7.15909 8.51515 7.05871 8.15152 6.85795 7.81818C6.6572 7.48106 6.37121 7.21212 6 7.01136C5.62879 6.80682 5.18939 6.70455 4.68182 6.70455H1.81818V10.75ZM1.81818 5.47727H4.43182C4.85606 5.47727 5.23864 5.39394 5.57955 5.22727C5.92424 5.06061 6.19697 4.82576 6.39773 4.52273C6.60227 4.2197 6.70455 3.86364 6.70455 3.45455C6.70455 2.94318 6.52652 2.50947 6.17045 2.15341C5.81439 1.79356 5.25 1.61364 4.47727 1.61364H1.81818V5.47727ZM15.6335 5.55682V6.80682H10.5426V5.55682H15.6335ZM19.4759 12L16.294 0.363636H17.7259L20.1577 9.84091H20.2713L22.7486 0.363636H24.3395L26.8168 9.84091H26.9304L29.3622 0.363636H30.794L27.6122 12H26.1577L23.5895 2.72727H23.4986L20.9304 12H19.4759ZM35.1009 12.1818C34.313 12.1818 33.6217 11.9943 33.027 11.6193C32.4361 11.2443 31.974 10.7197 31.6406 10.0455C31.3111 9.37121 31.1463 8.58333 31.1463 7.68182C31.1463 6.77273 31.3111 5.97917 31.6406 5.30114C31.974 4.62311 32.4361 4.09659 33.027 3.72159C33.6217 3.34659 34.313 3.15909 35.1009 3.15909C35.8887 3.15909 36.5781 3.34659 37.169 3.72159C37.7637 4.09659 38.2259 4.62311 38.5554 5.30114C38.8887 5.97917 39.0554 6.77273 39.0554 7.68182C39.0554 8.58333 38.8887 9.37121 38.5554 10.0455C38.2259 10.7197 37.7637 11.2443 37.169 11.6193C36.5781 11.9943 35.8887 12.1818 35.1009 12.1818ZM35.1009 10.9773C35.6993 10.9773 36.1918 10.8239 36.5781 10.517C36.9645 10.2102 37.2505 9.80682 37.4361 9.30682C37.6217 8.80682 37.7145 8.26515 37.7145 7.68182C37.7145 7.09848 37.6217 6.55492 37.4361 6.05114C37.2505 5.54735 36.9645 5.14015 36.5781 4.82955C36.1918 4.51894 35.6993 4.36364 35.1009 4.36364C34.5024 4.36364 34.0099 4.51894 33.6236 4.82955C33.2372 5.14015 32.9512 5.54735 32.7656 6.05114C32.58 6.55492 32.4872 7.09848 32.4872 7.68182C32.4872 8.26515 32.58 8.80682 32.7656 9.30682C32.9512 9.80682 33.2372 10.2102 33.6236 10.517C34.0099 10.8239 34.5024 10.9773 35.1009 10.9773ZM41.1023 12V3.27273H42.3977V4.59091H42.4886C42.6477 4.15909 42.9356 3.80871 43.3523 3.53977C43.7689 3.27083 44.2386 3.13636 44.7614 3.13636C44.8598 3.13636 44.983 3.13826 45.1307 3.14205C45.2784 3.14583 45.3902 3.15152 45.4659 3.15909V4.52273C45.4205 4.51136 45.3163 4.49432 45.1534 4.47159C44.9943 4.44508 44.8258 4.43182 44.6477 4.43182C44.2235 4.43182 43.8447 4.52083 43.5114 4.69886C43.1818 4.87311 42.9205 5.11553 42.7273 5.42614C42.5379 5.73295 42.4432 6.08333 42.4432 6.47727V12H41.1023ZM48.3963 0.363636V12H47.0554V0.363636H48.3963ZM54.1477 12.1818C53.4205 12.1818 52.7784 11.9981 52.2216 11.6307C51.6648 11.2595 51.2292 10.7367 50.9148 10.0625C50.6004 9.38447 50.4432 8.58333 50.4432 7.65909C50.4432 6.74242 50.6004 5.94697 50.9148 5.27273C51.2292 4.59848 51.6667 4.07765 52.2273 3.71023C52.7879 3.3428 53.4356 3.15909 54.1705 3.15909C54.7386 3.15909 55.1875 3.25379 55.517 3.44318C55.8504 3.62879 56.1042 3.84091 56.2784 4.07955C56.4564 4.31439 56.5947 4.50758 56.6932 4.65909H56.8068V0.363636H58.1477V12H56.8523V10.6591H56.6932C56.5947 10.8182 56.4545 11.0189 56.2727 11.2614C56.0909 11.5 55.8314 11.714 55.4943 11.9034C55.1572 12.089 54.7083 12.1818 54.1477 12.1818ZM54.3295 10.9773C54.8674 10.9773 55.322 10.8371 55.6932 10.5568C56.0644 10.2727 56.3466 9.88068 56.5398 9.38068C56.733 8.87689 56.8295 8.29545 56.8295 7.63636C56.8295 6.98485 56.7348 6.41477 56.5455 5.92614C56.3561 5.43371 56.0758 5.05114 55.7045 4.77841C55.3333 4.50189 54.875 4.36364 54.3295 4.36364C53.7614 4.36364 53.2879 4.50947 52.9091 4.80114C52.5341 5.08902 52.2519 5.48106 52.0625 5.97727C51.8769 6.4697 51.7841 7.02273 51.7841 7.63636C51.7841 8.25758 51.8788 8.82197 52.0682 9.32955C52.2614 9.83333 52.5455 10.2348 52.9205 10.5341C53.2992 10.8295 53.7689 10.9773 54.3295 10.9773Z" fill="#231F2D"/>
</svg>
